<svg xmlns="http://www.w3.org/2000/svg" xmlns:xlink="http://www.w3.org/1999/xlink" version="1.1" x="0px" y="0px" viewBox="0 0 24 30" style="enable-background:new 0 0 24 24;" xml:space="preserve">
  <g><g><path d="M10.458,20.5c-3.333,0-6.453-3.198-7.183-4H1c-0.227,0-0.425-0.152-0.483-0.371C0.496,16.05,0,14.166,0,12    c0-2.564,0.662-4.369,2.146-5.854C3.754,4.539,7.033,3.5,10.5,3.5c1.822,0,3.358,0.467,4.326,0.859    c0.978,0.396,1.717,1.204,2.028,2.215l1.572,5.11l4.499,3.052C23.592,15.118,24,15.935,24,17c0,0.736-0.576,2.5-2,2.5    c-1.115,0-3.083-1.871-3.777-2.57c-0.419,0.266-0.842,0.552-1.27,0.842C14.973,19.113,12.925,20.5,10.458,20.5z M1.396,15.5H3.5    c0.146,0,0.285,0.064,0.38,0.175c0.033,0.038,3.312,3.825,6.579,3.825c2.16,0,4.078-1.299,5.934-2.555    c1.525-1.033,2.981-2.019,4.56-2.338l-3.233-2.193c-0.094-0.063-0.164-0.158-0.197-0.267l-1.624-5.278    c-0.222-0.723-0.75-1.299-1.448-1.583C13.565,4.928,12.161,4.5,10.5,4.5c-3.166,0-6.239,0.946-7.646,2.354    C1.572,8.135,1,9.723,1,12C1,13.487,1.257,14.863,1.396,15.5z M19.108,16.4c1.079,1.053,2.417,2.1,2.892,2.1    c0.646,0,1-1.126,1-1.5c0-0.525-0.138-1.076-0.494-1.34c-0.012-0.007-0.023-0.014-0.034-0.021l-0.045-0.03    C22.307,15.539,22.166,15.5,22,15.5C21.026,15.5,20.072,15.866,19.108,16.4z"/></g><g><path d="M3.5,16.5c-0.128,0-0.256-0.049-0.354-0.146c-0.195-0.195-0.195-0.512,0-0.707C4.883,13.91,14.727,11.5,18,11.5    c0.276,0,0.5,0.224,0.5,0.5s-0.224,0.5-0.5,0.5c-3.463,0-12.85,2.557-14.146,3.854C3.756,16.451,3.628,16.5,3.5,16.5z"/></g><g><path d="M4.579,15.815c-0.207,0-0.4-0.129-0.472-0.335c-1.338-3.838-1.474-6.842-0.404-8.928C4.554,4.891,5.99,4.17,7.044,3.858    c0.265-0.081,0.543,0.073,0.622,0.337C7.744,4.46,7.593,4.738,7.328,4.817C6.461,5.074,5.283,5.662,4.592,7.008    c-0.94,1.833-0.786,4.573,0.458,8.143c0.091,0.261-0.047,0.546-0.308,0.637C4.688,15.807,4.633,15.815,4.579,15.815z"/></g></g>
  <text x="0" y="39" fill="#000000" font-size="5px" font-weight="bold" font-family="'Helvetica Neue', Helvetica, Arial-Unicode, Arial, Sans-serif">Created by icon 54</text><text x="0" y="44" fill="#000000" font-size="5px" font-weight="bold" font-family="'Helvetica Neue', Helvetica, Arial-Unicode, Arial, Sans-serif">from the Noun Project</text>
</svg>
